<?xml version="1.0" standalone="no"?>
<!DOCTYPE svg PUBLIC "-//W3C//DTD SVG 20010904//EN"
 "http://www.w3.org/TR/2001/REC-SVG-20010904/DTD/svg10.dtd">
<svg version="1.0" xmlns="http://www.w3.org/2000/svg"
 width="512.000000pt" height="512.000000pt" viewBox="0 0 512.000000 512.000000"
 preserveAspectRatio="xMidYMid meet">
<metadata>
Created by potrace 1.11, written by Peter Selinger 2001-2013
</metadata>
<g transform="translate(0.000000,512.000000) scale(0.100000,-0.100000)"
fill="#000000" stroke="none">
<path d="M1345 4810 c-109 -16 -183 -82 -204 -181 -8 -35 -11 -673 -11 -2078
0 -2250 -5 -2092 66 -2171 51 -56 108 -75 229 -75 87 0 107 3 149 25 28 14 62
41 78 60 58 74 58 72 58 1017 l0 863 853 -2 852 -3 5 -895 c5 -954 3 -916 55
-985 73 -94 315 -113 427 -33 45 32 77 97 88 179 13 101 13 3961 0 4052 -23
160 -109 230 -281 231 -134 0 -215 -39 -262 -127 l-22 -42 -3 -897 -2 -898
-855 0 -854 0 -3 888 -3 887 -28 58 c-30 60 -75 99 -134 116 -49 14 -145 20
-198 11z"/>
</g>
</svg>
